<mxfile host="Electron" modified="2024-03-26T03:43:17.939Z" agent="Mozilla/5.0 (Windows NT 10.0; Win64; x64) AppleWebKit/537.36 (KHTML, like Gecko) draw.io/24.1.0 Chrome/120.0.6099.109 Electron/28.1.0 Safari/537.36" etag="s1QIMEafiTDPs0VYm033" version="24.1.0" type="device">
  <diagram name="Página-1" id="K7pKiWxqpf9tMfUL_mJR">
    <mxGraphModel dx="1420" dy="830" grid="1" gridSize="10" guides="1" tooltips="1" connect="1" arrows="1" fold="1" page="1" pageScale="1" pageWidth="827" pageHeight="1169" background="#CCE5FF" math="0" shadow="0">
      <root>
        <mxCell id="0" />
        <mxCell id="1" parent="0" />
        <mxCell id="62OwxBOyHAiS03FKCUeI-1" value="&lt;b style=&quot;font-size: 16px;&quot;&gt;&lt;font color=&quot;#000000&quot;&gt;7. Hacer un programa para ingresar por teclado el importe de una venta y el&lt;br&gt;porcentaje de descuento aplicada a la misma y luego informar por pantalla el&lt;br&gt;importe a pagar.&lt;br&gt;Ejemplo A. Si el importe de la venta es $1200 y el descuento es el 15% entonces&lt;br&gt;el total a pagar será de $1020.&lt;br&gt;Ejemplo B. Si el importe de la venta es $800 y el descuento es el 0% entonces el&lt;br&gt;total a pagar será de $800.&lt;/font&gt;&lt;/b&gt;" style="text;strokeColor=none;align=left;fillColor=none;html=1;verticalAlign=middle;whiteSpace=wrap;rounded=0;" parent="1" vertex="1">
          <mxGeometry x="90" width="660" height="180" as="geometry" />
        </mxCell>
        <mxCell id="CXh-Wtha4gzJboY-1TB2-16" value="" style="group" vertex="1" connectable="0" parent="1">
          <mxGeometry x="95" y="225" width="550" height="380" as="geometry" />
        </mxCell>
        <mxCell id="CXh-Wtha4gzJboY-1TB2-1" value="" style="strokeWidth=2;html=1;shape=mxgraph.flowchart.start_2;whiteSpace=wrap;rounded=0;labelBackgroundColor=none;strokeColor=#000000;align=center;verticalAlign=middle;fontFamily=Helvetica;fontSize=12;fontColor=default;fillColor=#d5e8d4;aspect=fixed;" vertex="1" parent="CXh-Wtha4gzJboY-1TB2-16">
          <mxGeometry x="255" y="5" width="40" height="40" as="geometry" />
        </mxCell>
        <mxCell id="CXh-Wtha4gzJboY-1TB2-3" value="" style="shape=trapezoid;perimeter=trapezoidPerimeter;whiteSpace=wrap;html=1;fixedSize=1;rounded=0;labelBackgroundColor=none;strokeColor=#121211;strokeWidth=2;align=center;verticalAlign=middle;fontFamily=Helvetica;fontSize=12;fontColor=default;fillColor=#d5e8d4;direction=west;container=1;aspect=fixed;" vertex="1" parent="CXh-Wtha4gzJboY-1TB2-16">
          <mxGeometry x="130" y="75" width="305" height="50" as="geometry">
            <mxRectangle x="-1020" y="-650" width="50" height="40" as="alternateBounds" />
          </mxGeometry>
        </mxCell>
        <mxCell id="CXh-Wtha4gzJboY-1TB2-9" value="&lt;font face=&quot;Comic Sans MS&quot; color=&quot;#000000&quot; style=&quot;font-size: 14px;&quot;&gt;importe_venta, porcentaje_descuento&lt;/font&gt;" style="text;strokeColor=none;align=center;fillColor=none;html=1;verticalAlign=middle;whiteSpace=wrap;rounded=0;fontFamily=Architects Daughter;fontSource=https%3A%2F%2Ffonts.googleapis.com%2Fcss%3Ffamily%3DArchitects%2BDaughter;fontStyle=1;aspect=fixed;" vertex="1" parent="CXh-Wtha4gzJboY-1TB2-3">
          <mxGeometry x="-15" width="320" height="50" as="geometry" />
        </mxCell>
        <mxCell id="CXh-Wtha4gzJboY-1TB2-4" value="" style="shape=trapezoid;perimeter=trapezoidPerimeter;whiteSpace=wrap;html=1;fixedSize=1;rounded=0;labelBackgroundColor=none;strokeColor=#0F140C;strokeWidth=2;align=center;verticalAlign=middle;fontFamily=Helvetica;fontSize=12;fontColor=default;fillColor=#d5e8d4;aspect=fixed;" vertex="1" parent="CXh-Wtha4gzJboY-1TB2-16">
          <mxGeometry x="185" y="265" width="180" height="50" as="geometry" />
        </mxCell>
        <mxCell id="CXh-Wtha4gzJboY-1TB2-5" value="" style="rounded=0;whiteSpace=wrap;html=1;labelBackgroundColor=none;strokeColor=#0f100e;strokeWidth=2;align=center;verticalAlign=middle;fontFamily=Helvetica;fontSize=12;fontColor=default;fillColor=#d5e8d4;aspect=fixed;" vertex="1" parent="CXh-Wtha4gzJboY-1TB2-16">
          <mxGeometry y="155" width="550" height="70" as="geometry" />
        </mxCell>
        <mxCell id="CXh-Wtha4gzJboY-1TB2-6" value="&lt;b&gt;&lt;font color=&quot;#000000&quot; style=&quot;font-size: 18px;&quot;&gt;I&lt;/font&gt;&lt;/b&gt;" style="text;strokeColor=none;align=center;fillColor=none;html=1;verticalAlign=middle;whiteSpace=wrap;rounded=0;fontFamily=Architects Daughter;fontSource=https%3A%2F%2Ffonts.googleapis.com%2Fcss%3Ffamily%3DArchitects%2BDaughter;aspect=fixed;" vertex="1" parent="CXh-Wtha4gzJboY-1TB2-16">
          <mxGeometry x="230" width="90" height="50" as="geometry" />
        </mxCell>
        <mxCell id="CXh-Wtha4gzJboY-1TB2-8" value="" style="group;aspect=fixed;" vertex="1" connectable="0" parent="CXh-Wtha4gzJboY-1TB2-16">
          <mxGeometry x="245" y="340" width="60" height="40" as="geometry" />
        </mxCell>
        <mxCell id="CXh-Wtha4gzJboY-1TB2-2" value="" style="strokeWidth=2;html=1;shape=mxgraph.flowchart.start_2;whiteSpace=wrap;rounded=0;labelBackgroundColor=none;strokeColor=#000000;align=center;verticalAlign=middle;fontFamily=Helvetica;fontSize=12;fontColor=default;fillColor=#d5e8d4;aspect=fixed;" vertex="1" parent="CXh-Wtha4gzJboY-1TB2-8">
          <mxGeometry x="10" width="40" height="40" as="geometry" />
        </mxCell>
        <mxCell id="CXh-Wtha4gzJboY-1TB2-7" value="&lt;b&gt;&lt;font style=&quot;font-size: 16px;&quot; color=&quot;#000000&quot;&gt;F&lt;/font&gt;&lt;/b&gt;" style="text;strokeColor=none;align=center;fillColor=none;html=1;verticalAlign=middle;whiteSpace=wrap;rounded=0;fontFamily=Architects Daughter;fontSource=https%3A%2F%2Ffonts.googleapis.com%2Fcss%3Ffamily%3DArchitects%2BDaughter;aspect=fixed;" vertex="1" parent="CXh-Wtha4gzJboY-1TB2-8">
          <mxGeometry y="5" width="60" height="30" as="geometry" />
        </mxCell>
        <mxCell id="CXh-Wtha4gzJboY-1TB2-10" value="&lt;font color=&quot;#000000&quot; face=&quot;Comic Sans MS&quot; style=&quot;font-size: 14px;&quot;&gt;&lt;b style=&quot;&quot;&gt;porcentaje_descuento = porcentaje_descuento / 100&lt;/b&gt;&lt;/font&gt;&lt;div&gt;&lt;font color=&quot;#000000&quot; face=&quot;Comic Sans MS&quot; style=&quot;font-size: 14px;&quot;&gt;&lt;b style=&quot;&quot;&gt;importa_pagar = importe_venta - (importe_venta * porcentaje_descuento)&lt;/b&gt;&lt;/font&gt;&lt;/div&gt;" style="text;strokeColor=none;align=left;fillColor=none;html=1;verticalAlign=middle;whiteSpace=wrap;rounded=0;fontFamily=Architects Daughter;fontSource=https%3A%2F%2Ffonts.googleapis.com%2Fcss%3Ffamily%3DArchitects%2BDaughter;aspect=fixed;" vertex="1" parent="CXh-Wtha4gzJboY-1TB2-16">
          <mxGeometry x="22.5" y="135" width="520" height="110" as="geometry" />
        </mxCell>
        <mxCell id="CXh-Wtha4gzJboY-1TB2-11" value="&lt;b&gt;&lt;font color=&quot;#000000&quot; face=&quot;Comic Sans MS&quot; style=&quot;font-size: 15px;&quot;&gt;importe_pagar&lt;/font&gt;&lt;/b&gt;" style="text;strokeColor=none;align=center;fillColor=none;html=1;verticalAlign=middle;whiteSpace=wrap;rounded=0;fontFamily=Architects Daughter;fontSource=https%3A%2F%2Ffonts.googleapis.com%2Fcss%3Ffamily%3DArchitects%2BDaughter;aspect=fixed;" vertex="1" parent="CXh-Wtha4gzJboY-1TB2-16">
          <mxGeometry x="240" y="275" width="70" height="30" as="geometry" />
        </mxCell>
        <mxCell id="CXh-Wtha4gzJboY-1TB2-12" value="" style="line;strokeWidth=2;direction=south;html=1;hachureGap=4;fontFamily=Architects Daughter;fontSource=https%3A%2F%2Ffonts.googleapis.com%2Fcss%3Ffamily%3DArchitects%2BDaughter;strokeColor=#000000;aspect=fixed;" vertex="1" parent="CXh-Wtha4gzJboY-1TB2-16">
          <mxGeometry x="270" y="317" width="10" height="21" as="geometry" />
        </mxCell>
        <mxCell id="CXh-Wtha4gzJboY-1TB2-13" value="" style="line;strokeWidth=2;direction=south;html=1;hachureGap=4;fontFamily=Architects Daughter;fontSource=https://fonts.googleapis.com/css?family=Architects+Daughter;strokeColor=#000000;aspect=fixed;" vertex="1" parent="CXh-Wtha4gzJboY-1TB2-16">
          <mxGeometry x="270" y="220" width="10" height="45" as="geometry" />
        </mxCell>
        <mxCell id="CXh-Wtha4gzJboY-1TB2-14" value="" style="line;strokeWidth=2;direction=south;html=1;hachureGap=4;fontFamily=Architects Daughter;fontSource=https://fonts.googleapis.com/css?family=Architects+Daughter;strokeColor=#000000;aspect=fixed;" vertex="1" parent="CXh-Wtha4gzJboY-1TB2-16">
          <mxGeometry x="270" y="125" width="10" height="30" as="geometry" />
        </mxCell>
        <mxCell id="CXh-Wtha4gzJboY-1TB2-15" value="" style="line;strokeWidth=2;direction=south;html=1;hachureGap=4;fontFamily=Architects Daughter;fontSource=https://fonts.googleapis.com/css?family=Architects+Daughter;strokeColor=#000000;aspect=fixed;" vertex="1" parent="CXh-Wtha4gzJboY-1TB2-16">
          <mxGeometry x="270" y="45" width="10" height="30" as="geometry" />
        </mxCell>
      </root>
    </mxGraphModel>
  </diagram>
</mxfile>
